HIERARCHY
ROOT newVegas:Hips
{
	OFFSET 0.000000 96.479958 0.000000
	CHANNELS 6 Xposition Yposition Zposition Xrotation Yrotation Zrotation
	JOINT newVegas:Pelvis
	{
		OFFSET 0.000000 0.000000 0.000000
		CHANNELS 3 Xrotation Yrotation Zrotation
		JOINT newVegas:LeftUpLeg
		{
			OFFSET 18.735201 -5.666702 -4.541200
			CHANNELS 3 Xrotation Yrotation Zrotation
			JOINT newVegas:LeftLeg
			{
				OFFSET -0.021200 -31.938179 0.493100
				CHANNELS 3 Xrotation Yrotation Zrotation
				JOINT newVegas:LeftFoot
				{
					OFFSET 0.021200 -31.938179 -4.336299
					CHANNELS 3 Xrotation Yrotation Zrotation
					JOINT newVegas:LeftToeBase
					{
						OFFSET 0.943001 -26.722000 15.023500
						CHANNELS 3 Xrotation Yrotation Zrotation
						End Site
						{
							OFFSET 0.000000 30.670183 0.000000
						}
					}
				}
				JOINT newVegas:Left_PantLeg
				{
					OFFSET 0.663870 -9.044666 -1.108900
					CHANNELS 3 Xrotation Yrotation Zrotation
					End Site
					{
						OFFSET 1.415995 20.635357 0.000000
					}
				}
			}
		}
		JOINT newVegas:RightUpLeg
		{
			OFFSET -18.735201 -5.666702 -4.541200
			CHANNELS 3 Xrotation Yrotation Zrotation
			JOINT newVegas:RightLeg
			{
				OFFSET 0.018946 -31.938133 0.493100
				CHANNELS 3 Xrotation Yrotation Zrotation
				JOINT newVegas:RightFoot
				{
					OFFSET -0.018946 -31.938126 -4.336299
					CHANNELS 3 Xrotation Yrotation Zrotation
					JOINT newVegas:RightToeBase
					{
						OFFSET -0.943001 -26.722004 15.023500
						CHANNELS 3 Xrotation Yrotation Zrotation
						End Site
						{
							OFFSET 0.000000 30.670187 0.000000
						}
					}
				}
				JOINT newVegas:Right_PantLeg
				{
					OFFSET -0.661674 -9.044716 -1.108900
					CHANNELS 3 Xrotation Yrotation Zrotation
					End Site
					{
						OFFSET -1.415958 20.635269 0.000000
					}
				}
			}
		}
	}
	JOINT newVegas:Spine
	{
		OFFSET 0.000000 10.199997 -0.299500
		CHANNELS 3 Xrotation Yrotation Zrotation
		JOINT newVegas:Spine1
		{
			OFFSET 0.000000 11.900002 -1.516600
			CHANNELS 3 Xrotation Yrotation Zrotation
			JOINT newVegas:Spine2
			{
				OFFSET 0.000000 13.600006 -2.842500
				CHANNELS 3 Xrotation Yrotation Zrotation
				JOINT newVegas:Neck
				{
					OFFSET 0.000000 9.624100 -2.890100
					CHANNELS 3 Xrotation Yrotation Zrotation
					JOINT newVegas:Head
					{
						OFFSET 0.000000 14.068802 -1.351900
						CHANNELS 3 Xrotation Yrotation Zrotation
						JOINT newVegas:Hair_Back
						{
							OFFSET 0.000000 3.231903 -17.524799
							CHANNELS 3 Xrotation Yrotation Zrotation
							End Site
							{
								OFFSET 0.000000 19.849884 0.000000
							}
						}
						JOINT newVegas:Hair_Front
						{
							OFFSET 0.000000 31.260406 4.573800
							CHANNELS 3 Xrotation Yrotation Zrotation
							JOINT newVegas:Hair_Front1
							{
								OFFSET 0.000000 2.284103 11.993300
								CHANNELS 3 Xrotation Yrotation Zrotation
								JOINT newVegas:Hair_Front2
								{
									OFFSET 0.000000 2.284103 11.993300
									CHANNELS 3 Xrotation Yrotation Zrotation
									End Site
									{
										OFFSET 0.000000 12.208862 0.000000
									}
								}
							}
						}
						JOINT newVegas:Jowel
						{
							OFFSET 0.000000 -7.458206 6.864100
							CHANNELS 3 Xrotation Yrotation Zrotation
							End Site
							{
								OFFSET 0.000000 19.849884 0.000000
							}
						}
					}
				}
				JOINT newVegas:LeftShoulder
				{
					OFFSET 15.263000 10.923401 -0.547700
					CHANNELS 3 Xrotation Yrotation Zrotation
					JOINT newVegas:LeftArm
					{
						OFFSET 25.438599 -2.830597 -13.032500
						CHANNELS 3 Xrotation Yrotation Zrotation
						JOINT newVegas:LeftForeArm
						{
							OFFSET 29.960503 0.000000 0.000000
							CHANNELS 3 Xrotation Yrotation Zrotation
							JOINT newVegas:LeftHand
							{
								OFFSET 27.849251 0.000000 0.000000
								CHANNELS 3 Xrotation Yrotation Zrotation
								JOINT newVegas:LeftHandThumb1
								{
									OFFSET 4.487587 -3.305161 6.305391
									CHANNELS 3 Xrotation Yrotation Zrotation
									JOINT newVegas:LeftHandThumb2
									{
										OFFSET 5.480453 -3.164139 3.164143
										CHANNELS 3 Xrotation Yrotation Zrotation
										JOINT newVegas:LeftHandThumb3
										{
											OFFSET 5.159721 -2.978973 2.978967
											CHANNELS 3 Xrotation Yrotation Zrotation
											End Site
											{
												OFFSET 2.494507 5.926697 1.738678
											}
										}
									}
								}
								JOINT newVegas:LeftHandIndex1
								{
									OFFSET 18.578728 -0.527832 5.208049
									CHANNELS 3 Xrotation Yrotation Zrotation
									JOINT newVegas:LeftHandIndex2
									{
										OFFSET 3.192009 0.000000 0.000000
										CHANNELS 3 Xrotation Yrotation Zrotation
										JOINT newVegas:LeftHandIndex3
										{
											OFFSET 3.835129 0.000000 0.000000
											CHANNELS 3 Xrotation Yrotation Zrotation
											End Site
											{
												OFFSET -0.034599 3.816971 0.371180
											}
										}
									}
								}
								JOINT newVegas:LeftHandMiddle1
								{
									OFFSET 18.476105 0.000000 0.000000
									CHANNELS 3 Xrotation Yrotation Zrotation
									JOINT newVegas:LeftHandMiddle2
									{
										OFFSET 3.324875 0.000000 0.000000
										CHANNELS 3 Xrotation Yrotation Zrotation
										JOINT newVegas:LeftHandMiddle3
										{
											OFFSET 4.596550 0.000000 0.000000
											CHANNELS 3 Xrotation Yrotation Zrotation
											End Site
											{
												OFFSET 0.057701 4.578827 0.399218
											}
										}
									}
								}
								JOINT newVegas:LeftHandRing1
								{
									OFFSET 17.732719 0.121887 -4.201567
									CHANNELS 3 Xrotation Yrotation Zrotation
									JOINT newVegas:LeftHandRing2
									{
										OFFSET 2.733170 0.000000 0.000000
										CHANNELS 3 Xrotation Yrotation Zrotation
										JOINT newVegas:LeftHandRing3
										{
											OFFSET 3.178268 0.000000 0.000000
											CHANNELS 3 Xrotation Yrotation Zrotation
											End Site
											{
												OFFSET 0.119102 3.170624 0.185394
											}
										}
									}
								}
								JOINT newVegas:LeftHandPinky1
								{
									OFFSET 15.989624 -0.606689 -7.535461
									CHANNELS 3 Xrotation Yrotation Zrotation
									JOINT newVegas:LeftHandPinky2
									{
										OFFSET 2.538986 0.000000 0.000000
										CHANNELS 3 Xrotation Yrotation Zrotation
										JOINT newVegas:LeftHandPinky3
										{
											OFFSET 2.593102 0.000000 0.000000
											CHANNELS 3 Xrotation Yrotation Zrotation
											End Site
											{
												OFFSET -0.150902 2.584198 0.152708
											}
										}
									}
								}
							}
							JOINT newVegas:Left_Sleeve
							{
								OFFSET 0.267448 -0.649796 0.577675
								CHANNELS 3 Xrotation Yrotation Zrotation
								End Site
								{
									OFFSET 0.000000 15.991241 0.000000
								}
							}
							JOINT newVegas:Left_CapeC
							{
								OFFSET 15.715958 -8.608795 -6.935905
								CHANNELS 3 Xrotation Yrotation Zrotation
								JOINT newVegas:Left_CapeC1
								{
									OFFSET 0.000000 -8.688499 0.000000
									CHANNELS 3 Xrotation Yrotation Zrotation
									End Site
									{
										OFFSET 0.000000 8.688499 0.000000
									}
								}
							}
						}
						JOINT newVegas:Left_CapeB
						{
							OFFSET 26.118385 -8.608795 -7.079235
							CHANNELS 3 Xrotation Yrotation Zrotation
							JOINT newVegas:Left_CapeB1
							{
								OFFSET 0.000000 -8.688499 0.000000
								CHANNELS 3 Xrotation Yrotation Zrotation
								End Site
								{
									OFFSET 0.000000 8.688499 0.000000
								}
							}
						}
						JOINT newVegas:Left_CapeA
						{
							OFFSET 5.115639 -8.608795 -10.395809
							CHANNELS 3 Xrotation Yrotation Zrotation
							JOINT newVegas:Left_CapeA1
							{
								OFFSET 0.000000 -8.688499 0.000000
								CHANNELS 3 Xrotation Yrotation Zrotation
								End Site
								{
									OFFSET 0.000000 8.688499 0.000000
								}
							}
						}
					}
				}
				JOINT newVegas:RightShoulder
				{
					OFFSET -15.263000 10.923401 -0.547700
					CHANNELS 3 Xrotation Yrotation Zrotation
					JOINT newVegas:RightArm
					{
						OFFSET -25.438599 -2.830597 -13.032500
						CHANNELS 3 Xrotation Yrotation Zrotation
						JOINT newVegas:RightForeArm
						{
							OFFSET -29.960503 0.000000 0.000000
							CHANNELS 3 Xrotation Yrotation Zrotation
							JOINT newVegas:RightHand
							{
								OFFSET -27.849251 0.000000 0.000000
								CHANNELS 3 Xrotation Yrotation Zrotation
								JOINT newVegas:RightHandThumb1
								{
									OFFSET -4.487587 -3.305161 6.305391
									CHANNELS 3 Xrotation Yrotation Zrotation
									JOINT newVegas:RightHandThumb2
									{
										OFFSET -5.480453 -3.164139 3.164143
										CHANNELS 3 Xrotation Yrotation Zrotation
										JOINT newVegas:RightHandThumb3
										{
											OFFSET -5.159721 -2.978973 2.978967
											CHANNELS 3 Xrotation Yrotation Zrotation
											End Site
											{
												OFFSET -2.494507 5.926697 1.738678
											}
										}
									}
								}
								JOINT newVegas:RightHandIndex1
								{
									OFFSET -18.578728 -0.527832 5.208049
									CHANNELS 3 Xrotation Yrotation Zrotation
									JOINT newVegas:RightHandIndex2
									{
										OFFSET -3.192009 0.000000 0.000000
										CHANNELS 3 Xrotation Yrotation Zrotation
										JOINT newVegas:RightHandIndex3
										{
											OFFSET -3.835129 0.000000 0.000000
											CHANNELS 3 Xrotation Yrotation Zrotation
											End Site
											{
												OFFSET 0.034599 3.816971 0.371180
											}
										}
									}
								}
								JOINT newVegas:RightHandMiddle1
								{
									OFFSET -18.476105 0.000000 0.000000
									CHANNELS 3 Xrotation Yrotation Zrotation
									JOINT newVegas:RightHandMiddle2
									{
										OFFSET -3.324875 0.000000 0.000000
										CHANNELS 3 Xrotation Yrotation Zrotation
										JOINT newVegas:RightHandMiddle3
										{
											OFFSET -4.596550 0.000000 0.000000
											CHANNELS 3 Xrotation Yrotation Zrotation
											End Site
											{
												OFFSET -0.057701 4.578827 0.399218
											}
										}
									}
								}
								JOINT newVegas:RightHandRing1
								{
									OFFSET -17.732719 0.121887 -4.201567
									CHANNELS 3 Xrotation Yrotation Zrotation
									JOINT newVegas:RightHandRing2
									{
										OFFSET -2.733170 0.000000 0.000000
										CHANNELS 3 Xrotation Yrotation Zrotation
										JOINT newVegas:RightHandRing3
										{
											OFFSET -3.178268 0.000000 0.000000
											CHANNELS 3 Xrotation Yrotation Zrotation
											End Site
											{
												OFFSET -0.119102 3.170624 0.185394
											}
										}
									}
								}
								JOINT newVegas:RightHandPinky1
								{
									OFFSET -15.989624 -0.606689 -7.535461
									CHANNELS 3 Xrotation Yrotation Zrotation
									JOINT newVegas:RightHandPinky2
									{
										OFFSET -2.538986 0.000000 0.000000
										CHANNELS 3 Xrotation Yrotation Zrotation
										JOINT newVegas:RightHandPinky3
										{
											OFFSET -2.593102 0.000000 0.000000
											CHANNELS 3 Xrotation Yrotation Zrotation
											End Site
											{
												OFFSET 0.150902 2.584198 0.152708
											}
										}
									}
								}
							}
							JOINT newVegas:Right_CapeC
							{
								OFFSET -15.715958 -8.608795 -6.935905
								CHANNELS 3 Xrotation Yrotation Zrotation
								JOINT newVegas:Right_CapeC1
								{
									OFFSET 0.000000 -8.688499 0.000000
									CHANNELS 3 Xrotation Yrotation Zrotation
									End Site
									{
										OFFSET 0.000000 8.688499 0.000000
									}
								}
							}
							JOINT newVegas:Right_Sleeve
							{
								OFFSET -0.267448 -0.649994 0.577675
								CHANNELS 3 Xrotation Yrotation Zrotation
								End Site
								{
									OFFSET 0.000000 15.991302 0.000000
								}
							}
						}
						JOINT newVegas:Right_CapeA
						{
							OFFSET -5.115540 -8.608795 -10.395824
							CHANNELS 3 Xrotation Yrotation Zrotation
							JOINT newVegas:Right_CapeA1
							{
								OFFSET 0.000000 -8.688499 0.000000
								CHANNELS 3 Xrotation Yrotation Zrotation
								End Site
								{
									OFFSET 0.000000 8.688499 0.000000
								}
							}
						}
						JOINT newVegas:Right_CapeB
						{
							OFFSET -26.118187 -8.608795 -7.079266
							CHANNELS 3 Xrotation Yrotation Zrotation
							JOINT newVegas:Right_CapeB1
							{
								OFFSET 0.000000 -8.688499 0.000000
								CHANNELS 3 Xrotation Yrotation Zrotation
								End Site
								{
									OFFSET 0.000000 8.688499 0.000000
								}
							}
						}
					}
				}
				JOINT newVegas:Left_Collar
				{
					OFFSET 18.625099 8.655502 8.828100
					CHANNELS 3 Xrotation Yrotation Zrotation
					JOINT newVegas:Left_Collar1
					{
						OFFSET 14.783401 10.540405 -1.259500
						CHANNELS 3 Xrotation Yrotation Zrotation
						End Site
						{
							OFFSET 0.000000 18.199875 0.000000
						}
					}
				}
				JOINT newVegas:Collar_Back
				{
					OFFSET 0.000000 15.630707 -20.132601
					CHANNELS 3 Xrotation Yrotation Zrotation
					End Site
					{
						OFFSET 0.000000 22.523010 0.000000
					}
				}
				JOINT newVegas:Left_Peck
				{
					OFFSET 17.239599 -5.132599 25.482599
					CHANNELS 3 Xrotation Yrotation Zrotation
					End Site
					{
						OFFSET 0.000000 22.523010 0.000000
					}
				}
				JOINT newVegas:Right_Peck
				{
					OFFSET -17.239599 -5.132202 25.482599
					CHANNELS 3 Xrotation Yrotation Zrotation
					End Site
					{
						OFFSET 0.000000 22.523010 0.000000
					}
				}
				JOINT newVegas:Right_Collar
				{
					OFFSET -18.625099 8.655792 8.828100
					CHANNELS 3 Xrotation Yrotation Zrotation
					JOINT newVegas:Right_Collar1
					{
						OFFSET -14.783401 10.539993 -1.259500
						CHANNELS 3 Xrotation Yrotation Zrotation
						End Site
						{
							OFFSET 0.000000 18.199631 0.000000
						}
					}
				}
			}
		}
		JOINT newVegas:Belly
		{
			OFFSET 0.000000 -6.540398 9.014299
			CHANNELS 3 Xrotation Yrotation Zrotation
			End Site
			{
				OFFSET 0.000000 11.566666 0.000000
			}
		}
	}
	JOINT newVegas:ElvisFacialAnim_Joint
	{
		OFFSET 1.000000 -95.330101 -8.825800
		CHANNELS 3 Xrotation Yrotation Zrotation
		End Site
		{
			OFFSET 0.000000 35.315800 0.000000
		}
	}
}
MOTION
Frames: 4
Frame Time: 0.016667
-3.763844 89.800194 2.486977 -10.800133 -54.491837 -7.069869 0.000000 0.000002 -0.000000 -25.256013 10.927616 19.894748 34.197381 13.108588 -0.375938 1.208489 0.840923 -12.746008 0.000000 0.000000 -0.000000 0.000000 0.000001 0.000001 -20.820592 -17.035518 -25.187735 42.310030 -2.389188 -3.227925 -16.007313 -0.049982 15.021983 -0.000000 0.000000 -0.000000 -0.000001 0.000000 -0.000001 5.267458 0.419830 0.715806 4.893951 1.120453 0.299612 8.444753 1.036566 0.033103 1.011584 2.230200 -0.044609 1.011577 2.230208 -0.044611 -0.000000 -0.000001 -0.000000 1.011585 2.230196 -0.044608 1.011655 2.230235 -0.044621 0.000002 0.000000 0.000001 -0.000000 -0.000001 0.000000 9.150569 -24.592608 -2.246832 -26.053173 8.217173 -60.618803 -91.270158 13.114515 -86.117149 -27.757931 -7.625876 -6.300476 0.699128 9.503395 -2.418120 5.975191 12.647541 1.348330 0.000001 -0.000004 -0.000003 9.479716 -1.289752 -20.785557 0.709478 2.796411 -28.467076 -0.000001 0.000003 0.000002 10.058158 -1.800608 -20.644710 1.774256 4.200469 -45.782058 -0.000002 -0.000000 -0.000002 1.254223 -0.073712 -17.945765 3.754108 5.463630 -68.965315 0.000003 -0.000001 0.000001 -7.938252 1.609101 -6.495668 2.210561 4.583623 -51.475161 -0.000002 -0.000005 -0.000002 -0.000000 -0.000001 0.000000 -0.000000 -0.000001 0.000000 -0.000000 -0.000001 -0.000000 0.000001 0.000000 0.000001 0.000001 0.000000 -0.000000 0.000001 0.000000 0.000001 0.000001 -0.000000 0.000001 10.411183 20.330613 -1.369223 3.446557 33.597014 47.887856 68.289789 116.117437 -81.856245 -10.139690 21.397002 14.282922 13.942493 -4.273684 -5.300335 7.113147 -20.767455 -2.619523 -0.000000 0.000001 0.000001 0.357750 -5.832704 5.175849 0.094361 -0.933685 11.539903 -0.000001 0.000001 0.000000 3.764103 -12.080454 1.143783 5.714265 -4.535834 103.133562 0.000000 -0.000001 -0.000003 -12.155584 -12.623923 9.228351 6.566850 -4.248443 114.232353 0.000002 0.000000 0.000005 -17.635776 -10.496873 3.325423 4.993618 -4.645002 94.147935 -0.000001 -0.000004 -0.000001 -0.000000 -0.000000 0.000000 0.000000 -0.000001 0.000001 -0.000000 -0.000000 0.000000 0.000000 -0.000001 0.000000 0.000001 0.000000 -0.000001 0.000000 -0.000001 0.000000 0.000001 -0.000000 0.000000 0.000000 0.000001 -0.000000 0.000000 0.000001 -0.000000 0.000000 0.000001 -0.000000 0.000000 0.000001 -0.000000 0.000000 0.000001 -0.000000 0.000000 0.000001 -0.000000 0.000000 0.000001 -0.000000 0.000000 -0.000000 -0.000000 0.000000 0.000002 -0.000000 
-3.689934 89.736359 3.122554 -10.364231 -53.067213 -6.640281 0.000001 -0.000002 -0.000001 -26.120670 10.835362 19.479028 35.060071 11.934560 -0.627652 0.639022 0.790934 -11.898888 -0.000000 0.000000 -0.000000 -0.000000 -0.000002 0.000000 -20.580711 -15.517232 -25.127255 44.032051 -4.309309 -1.747146 -16.792013 0.336232 12.986848 0.000000 0.000000 -0.000000 0.000002 0.000001 -0.000000 5.212601 0.331815 0.850652 4.881397 0.959834 0.315642 8.443274 1.126752 0.051353 1.020417 2.255408 -0.048225 1.020416 2.255437 -0.048226 -0.000000 -0.000001 0.000000 1.020419 2.255407 -0.048222 1.020495 2.255422 -0.048229 -0.000000 0.000002 -0.000000 -0.000000 -0.000001 -0.000000 8.936008 -24.743200 -2.968075 -26.604857 8.959811 -60.009789 -91.306051 12.800107 -85.897620 -27.851640 -7.038007 -5.777689 0.699127 9.503387 -2.418122 5.975195 12.647542 1.348327 0.000003 0.000001 -0.000001 9.479716 -1.289762 -20.785560 0.709482 2.796411 -28.467078 -0.000002 0.000000 -0.000003 10.058160 -1.800609 -20.644704 1.774260 4.200470 -45.782065 0.000001 0.000001 -0.000002 1.254220 -0.073715 -17.945769 3.754111 5.463623 -68.965315 -0.000002 -0.000001 -0.000001 -7.938252 1.609097 -6.495670 2.210565 4.583623 -51.475161 0.000002 -0.000003 -0.000003 -0.000000 -0.000002 0.000000 -0.000000 -0.000002 0.000000 -0.000000 -0.000001 0.000000 0.000001 0.000000 -0.000001 0.000001 0.000000 -0.000001 0.000001 0.000000 -0.000001 0.000001 0.000001 -0.000002 10.571304 20.013233 -2.157008 3.272275 35.427536 47.123989 70.645978 116.398909 -84.504303 -10.445471 22.183747 13.476848 13.942493 -4.273682 -5.300330 7.113143 -20.767451 -2.619521 -0.000000 0.000000 0.000001 0.357748 -5.832702 5.175848 0.094361 -0.933687 11.539909 -0.000000 -0.000001 -0.000001 3.764103 -12.080457 1.143783 5.714265 -4.535833 103.133562 -0.000000 -0.000000 -0.000004 -12.155591 -12.623920 9.228348 6.566849 -4.248441 114.232359 0.000001 0.000001 -0.000000 -17.635777 -10.496873 3.325423 4.993613 -4.644999 94.147929 0.000001 -0.000000 0.000001 -0.000000 0.000000 -0.000000 -0.000000 0.000000 -0.000000 -0.000000 -0.000000 0.000000 -0.000000 0.000000 -0.000003 -0.000000 0.000000 -0.000001 -0.000000 0.000000 -0.000003 -0.000000 -0.000000 -0.000001 -0.000001 0.000000 -0.000000 -0.000001 0.000000 -0.000000 -0.000001 0.000000 -0.000000 -0.000001 0.000000 -0.000000 -0.000001 0.000000 -0.000000 -0.000001 0.000000 -0.000000 -0.000001 0.000000 -0.000000 0.000000 0.000003 0.000000 0.000001 -0.000002 -0.000001 
-3.573670 89.602722 3.772184 -9.955750 -51.641967 -6.246332 -0.000000 0.000002 0.000000 -27.130633 10.691830 19.112094 36.250095 10.775063 -0.970268 -0.074092 0.717883 -10.998153 0.000000 0.000000 0.000000 -0.000000 -0.000001 0.000000 -22.025405 -12.790272 -25.515008 47.419486 -5.743206 -0.981017 -14.591193 0.388168 12.532384 0.000000 0.000001 0.000000 0.000002 -0.000001 0.000000 5.201826 0.312769 0.902380 4.875919 0.893823 0.313338 8.471693 1.741699 0.006405 1.041177 2.319114 -0.038256 1.041176 2.319111 -0.038257 0.000000 0.000001 -0.000001 1.041246 2.319074 -0.038257 1.041105 2.319148 -0.038260 0.000000 -0.000003 0.000001 0.000000 0.000001 -0.000000 8.936018 -24.743315 -2.968063 -27.022581 9.098563 -59.788744 -91.418121 12.788582 -85.389727 -28.033238 -6.726871 -5.796749 0.699125 9.503394 -2.418121 5.975192 12.647542 1.348329 0.000001 0.000000 0.000001 9.479717 -1.289756 -20.785560 0.709479 2.796408 -28.467078 -0.000001 0.000001 -0.000004 10.058161 -1.800611 -20.644710 1.774256 4.200467 -45.782065 0.000005 -0.000001 0.000000 1.254222 -0.073717 -17.945771 3.754112 5.463625 -68.965322 -0.000004 -0.000001 0.000000 -7.938252 1.609103 -6.495669 2.210565 4.583625 -51.475164 0.000001 0.000000 -0.000003 -0.000000 -0.000003 0.000000 -0.000000 -0.000003 0.000000 -0.000000 -0.000003 0.000000 0.000001 -0.000001 -0.000001 0.000001 -0.000001 -0.000001 0.000001 -0.000001 -0.000001 -0.000000 -0.000001 -0.000001 10.565201 19.946534 -2.142259 2.607391 35.855146 47.333549 71.764750 116.208401 -85.771057 -10.570378 21.998957 13.615176 13.942494 -4.273684 -5.300334 7.113146 -20.767451 -2.619518 0.000001 -0.000001 0.000001 0.357750 -5.832705 5.175850 0.094359 -0.933686 11.539907 -0.000000 0.000000 -0.000002 3.764103 -12.080459 1.143783 5.714265 -4.535835 103.133562 0.000000 0.000000 -0.000000 -12.155588 -12.623923 9.228351 6.566850 -4.248441 114.232353 0.000001 0.000002 0.000002 -17.635770 -10.496877 3.325426 4.993615 -4.645008 94.147935 0.000001 0.000000 -0.000004 0.000000 -0.000000 -0.000000 0.000000 -0.000000 0.000000 0.000000 -0.000000 -0.000000 0.000001 0.000000 -0.000001 0.000002 0.000000 -0.000000 0.000001 0.000000 -0.000001 0.000002 -0.000000 -0.000000 0.000000 0.000003 -0.000000 0.000000 0.000003 -0.000000 0.000000 0.000003 -0.000000 0.000000 0.000003 -0.000000 0.000000 0.000003 -0.000000 0.000000 0.000003 -0.000000 0.000000 0.000003 -0.000000 0.000000 -0.000003 -0.000000 -0.000000 0.000002 0.000000 
-3.441184 89.415939 4.445520 -9.571822 -50.215776 -5.873962 0.000000 0.000002 0.000000 -28.209783 10.528588 18.783763 37.639356 9.609515 -1.403497 -0.882251 0.626115 -10.038337 0.000000 -0.000000 -0.000000 0.000000 0.000001 0.000001 -23.605410 -9.705279 -25.480121 50.747793 -7.040667 -0.525752 -11.712706 0.281267 12.309047 0.000000 -0.000000 0.000001 0.000002 0.000000 0.000000 5.200372 0.301090 0.914258 4.870108 0.829821 0.304667 8.520207 2.710882 -0.072869 1.072473 2.412960 -0.023047 1.072473 2.412956 -0.023039 -0.000000 -0.000001 0.000000 1.072547 2.412955 -0.023046 1.072401 2.412952 -0.023040 -0.000000 0.000001 -0.000000 -0.000000 -0.000001 0.000000 8.936032 -24.743296 -2.968067 -27.403868 9.241063 -59.623057 -91.512821 12.777769 -84.960552 -28.164041 -6.454043 -5.810566 0.699128 9.503387 -2.418123 5.975193 12.647543 1.348331 0.000000 -0.000003 0.000000 9.479716 -1.289758 -20.785557 0.709480 2.796409 -28.467081 -0.000002 0.000000 -0.000001 10.058160 -1.800611 -20.644710 1.774258 4.200469 -45.782061 0.000003 -0.000001 0.000000 1.254221 -0.073711 -17.945765 3.754109 5.463624 -68.965322 -0.000004 -0.000001 0.000001 -7.938251 1.609099 -6.495668 2.210563 4.583622 -51.475161 0.000001 -0.000003 -0.000002 0.000000 0.000002 -0.000001 0.000000 0.000002 -0.000001 0.000000 0.000002 -0.000001 -0.000001 0.000002 -0.000002 -0.000001 0.000002 -0.000001 -0.000001 0.000002 -0.000002 -0.000002 0.000001 -0.000002 10.560325 19.868223 -2.125412 2.003530 36.236100 47.517141 72.763603 116.049722 -86.902519 -10.678778 21.824906 13.770430 13.942495 -4.273684 -5.300331 7.113147 -20.767455 -2.619517 -0.000001 -0.000000 -0.000001 0.357748 -5.832702 5.175849 0.094359 -0.933688 11.539904 -0.000001 0.000001 -0.000000 3.764103 -12.080456 1.143782 5.714264 -4.535833 103.133568 -0.000000 0.000000 0.000000 -12.155593 -12.623924 9.228351 6.566851 -4.248440 114.232353 0.000001 0.000000 0.000007 -17.635777 -10.496875 3.325423 4.993620 -4.644998 94.147929 -0.000001 -0.000000 0.000002 0.000000 -0.000000 0.000000 0.000000 -0.000001 0.000000 0.000000 -0.000001 0.000000 -0.000000 -0.000001 -0.000003 0.000000 0.000000 -0.000002 -0.000000 -0.000001 -0.000003 0.000000 -0.000000 -0.000002 0.000001 -0.000002 0.000001 0.000001 -0.000002 0.000001 0.000001 -0.000002 0.000001 0.000001 -0.000002 0.000001 0.000001 -0.000002 0.000001 0.000001 -0.000002 0.000001 0.000001 -0.000002 0.000001 -0.000000 0.000001 0.000000 0.000000 0.000002 0.000000 
